<svg xmlns="http://www.w3.org/2000/svg" height="512pt" version="1.1" viewBox="0 0 512 512" width="512pt">
<g id="surface1">
<path d="M 512 256 C 512 298.160156 501.808594 337.929688 483.75 373 C 460.148438 418.859375 423.089844 456.671875 377.800781 481.210938 C 377.53125 481.359375 377.25 481.511719 376.980469 481.660156 C 368.558594 486.179688 359.859375 490.25 350.898438 493.820312 C 341.828125 497.449219 332.5 500.570312 322.949219 503.148438 C 301.609375 508.921875 279.160156 512 256 512 C 232.839844 512 210.390625 508.921875 189.050781 503.148438 C 179.800781 500.648438 170.761719 497.640625 161.949219 494.148438 C 156.710938 492.089844 151.558594 489.851562 146.5 487.449219 C 142.328125 485.480469 138.230469 483.398438 134.199219 481.210938 C 126.308594 476.941406 118.660156 472.261719 111.300781 467.191406 C 100.089844 459.511719 89.519531 450.941406 79.691406 441.601562 C 58.929688 421.878906 41.480469 398.699219 28.25 373 C 10.191406 337.929688 0 298.160156 0 256 C 0 114.621094 114.621094 0 256 0 C 397.378906 0 512 114.621094 512 256 Z M 512 256 " style=" stroke:none;fill-rule:nonzero;fill:rgb(39.607843%,69.803922%,100%);fill-opacity:1;" />
<path d="M 512 256 C 512 282.050781 508.109375 307.191406 500.871094 330.871094 C 468.859375 435.71875 371.328125 512 256 512 C 151.441406 512 61.511719 449.300781 21.769531 359.449219 C 7.769531 327.820312 0 292.820312 0 256 C 0 209.78125 12.25 166.429688 33.679688 129 C 77.800781 206.070312 160.839844 258 256 258 C 351.160156 258 434.210938 206.070312 478.320312 129 C 499.75 166.429688 512 209.78125 512 256 Z M 512 256 " style=" stroke:none;fill-rule:nonzero;fill:rgb(20.784314%,61.176471%,93.72549%);fill-opacity:1;" />
<path d="M 189.050781 503.148438 C 179.800781 500.648438 170.761719 497.640625 161.949219 494.148438 C 161.671875 494.039062 161.378906 493.929688 161.101562 493.808594 C 156.828125 492.121094 152.628906 490.300781 148.488281 488.371094 C 148.390625 488.328125 148.300781 488.28125 148.199219 488.238281 C 147.628906 487.980469 147.058594 487.71875 146.5 487.449219 C 142.328125 485.480469 138.230469 483.398438 134.199219 481.210938 L 142.078125 314.929688 L 142.761719 300.570312 L 144.308594 268.019531 L 145.890625 234.621094 L 176.320312 234.621094 L 177.109375 251.308594 L 179.449219 300.558594 Z M 189.050781 503.148438 " style=" stroke:none;fill-rule:nonzero;fill:rgb(89.411765%,92.156863%,97.254902%);fill-opacity:1;" />
<path d="M 153.460938 234.621094 L 148.488281 488.371094 C 148.390625 488.328125 148.300781 488.28125 148.199219 488.238281 C 147.628906 487.980469 147.058594 487.71875 146.5 487.449219 C 142.328125 485.480469 138.230469 483.398438 134.199219 481.210938 L 142.078125 314.929688 L 142.761719 300.570312 L 144.308594 268.019531 L 145.890625 234.621094 Z M 153.460938 234.621094 " style=" stroke:none;fill-rule:nonzero;fill:rgb(100%,100%,100%);fill-opacity:1;" />
<path d="M 238.460938 215.171875 C 238.460938 268.078125 213.320312 294.039062 179.449219 300.558594 C 173.570312 301.699219 167.421875 302.25 161.101562 302.25 C 154.78125 302.25 148.640625 301.699219 142.761719 300.570312 C 122.179688 296.601562 104.820312 285.449219 94.371094 265.441406 C 87.609375 252.519531 83.75 235.921875 83.75 215.171875 C 83.75 153.078125 118.390625 102.738281 161.101562 102.738281 C 167.769531 102.738281 174.230469 103.960938 180.398438 106.269531 C 213.789062 118.730469 238.460938 162.769531 238.460938 215.171875 Z M 238.460938 215.171875 " style=" stroke:none;fill-rule:nonzero;fill:rgb(89.411765%,92.156863%,97.254902%);fill-opacity:1;" />
<path d="M 163.988281 302.199219 C 163.03125 302.238281 162.070312 302.25 161.101562 302.25 C 154.78125 302.25 148.640625 301.699219 142.761719 300.570312 C 122.179688 296.601562 104.820312 285.449219 94.371094 265.441406 C 87.609375 252.519531 83.75 235.921875 83.75 215.171875 C 83.75 153.078125 118.390625 102.738281 161.101562 102.738281 C 161.410156 102.738281 161.71875 102.738281 162.03125 102.75 C 138.699219 127.089844 123.488281 166.859375 123.488281 211.789062 C 123.488281 236.539062 128.101562 256.339844 136.160156 271.761719 C 143.121094 285.089844 152.648438 295.121094 163.988281 302.199219 Z M 163.988281 302.199219 " style=" stroke:none;fill-rule:nonzero;fill:rgb(100%,100%,100%);fill-opacity:1;" />
<path d="M 377.800781 481.210938 C 377.53125 481.359375 377.25 481.511719 376.980469 481.660156 C 368.558594 486.179688 359.859375 490.25 350.898438 493.820312 C 346.859375 495.441406 342.769531 496.949219 338.621094 498.359375 C 338.390625 498.441406 338.160156 498.519531 337.929688 498.601562 C 333 500.269531 328.011719 501.78125 322.949219 503.148438 L 331.738281 317.71875 L 331.808594 316.21875 L 331.871094 314.929688 L 332.550781 300.558594 L 333.601562 278.558594 L 335.679688 234.621094 L 366.109375 234.621094 L 367.929688 273 L 369.238281 300.558594 Z M 377.800781 481.210938 " style=" stroke:none;fill-rule:nonzero;fill:rgb(89.411765%,92.156863%,97.254902%);fill-opacity:1;" />
<path d="M 343.460938 234.621094 C 343.460938 234.621094 340.238281 420.570312 338.621094 498.359375 C 338.390625 498.441406 338.160156 498.519531 337.929688 498.601562 C 333 500.269531 328.011719 501.78125 322.949219 503.148438 L 331.738281 317.71875 L 332.078125 314.929688 L 332.761719 300.570312 L 334.308594 268.019531 L 335.890625 234.621094 Z M 343.460938 234.621094 " style=" stroke:none;fill-rule:nonzero;fill:rgb(100%,100%,100%);fill-opacity:1;" />
<path d="M 377.800781 481.210938 C 377.53125 481.359375 377.25 481.511719 376.980469 481.660156 C 368.558594 486.179688 359.859375 490.25 350.898438 493.820312 L 350.898438 234.621094 L 366.109375 234.621094 L 367.929688 273 L 369.238281 300.558594 Z M 377.800781 481.210938 " style=" stroke:none;fill-rule:nonzero;fill:rgb(78.039216%,85.098039%,100%);fill-opacity:1;" />
<path d="M 428.25 215.171875 C 428.25 277.269531 393.609375 302.25 350.898438 302.25 L 350.800781 302.25 C 322.390625 302.21875 297.570312 291.140625 284.160156 265.441406 C 283.371094 263.941406 282.621094 262.371094 281.910156 260.769531 C 276.558594 248.589844 273.539062 233.5 273.539062 215.171875 C 273.539062 190.351562 279.070312 167.410156 288.449219 148.820312 C 290.960938 143.839844 298.480469 145.648438 298.480469 151.230469 L 298.480469 220.25 C 298.480469 223.980469 301.511719 227.011719 305.238281 227.011719 C 307.109375 227.011719 308.800781 226.25 310.03125 225.03125 C 311.25 223.800781 312.011719 222.109375 312.011719 220.25 L 312.011719 121.980469 C 312.011719 119.320312 313.289062 116.839844 315.410156 115.238281 C 315.46875 115.199219 315.519531 115.148438 315.578125 115.109375 C 321.078125 111 328.921875 115 328.921875 121.871094 L 328.921875 220.25 C 328.921875 223.980469 331.941406 227.011719 335.679688 227.011719 C 337.550781 227.011719 339.238281 226.25 340.460938 225.03125 C 341.679688 223.800781 342.441406 222.109375 342.441406 220.25 L 342.441406 111.101562 C 342.441406 106.488281 346.191406 102.738281 350.800781 102.738281 L 350.898438 102.738281 C 353.21875 102.738281 355.328125 103.691406 356.859375 105.21875 C 358.398438 106.761719 359.351562 108.871094 359.351562 111.199219 L 359.351562 220.25 C 359.351562 223.980469 362.378906 227.011719 366.109375 227.011719 C 367.980469 227.011719 369.671875 226.25 370.898438 225.03125 C 372.121094 223.800781 372.878906 222.109375 372.878906 220.25 L 372.878906 121.871094 C 372.878906 115 380.71875 111 386.21875 115.121094 C 386.269531 115.160156 386.328125 115.199219 386.378906 115.238281 C 388.5 116.839844 389.78125 119.320312 389.78125 121.980469 L 389.78125 220.25 C 389.78125 223.980469 392.808594 227.011719 396.550781 227.011719 C 398.421875 227.011719 400.109375 226.25 401.328125 225.03125 C 402.550781 223.800781 403.308594 222.109375 403.308594 220.25 L 403.308594 151.371094 C 403.308594 147.410156 407.101562 145.328125 410.210938 146.21875 C 411.5 146.589844 412.679688 147.46875 413.410156 148.941406 C 422.75 167.519531 428.25 190.410156 428.25 215.171875 Z M 428.25 215.171875 " style=" stroke:none;fill-rule:nonzero;fill:rgb(78.039216%,85.098039%,100%);fill-opacity:1;" />
<path d="M 189.050781 503.148438 C 179.800781 500.648438 170.761719 497.640625 161.949219 494.148438 C 161.671875 494.039062 161.378906 493.929688 161.101562 493.808594 L 161.101562 302.25 C 167.421875 302.25 173.570312 301.699219 179.449219 300.558594 Z M 189.050781 503.148438 " style=" stroke:none;fill-rule:nonzero;fill:rgb(78.039216%,85.098039%,100%);fill-opacity:1;" />
<path d="M 238.460938 215.171875 C 238.460938 268.078125 213.320312 294.039062 179.449219 300.558594 C 173.570312 301.699219 167.421875 302.25 161.101562 302.25 L 161.101562 102.738281 C 167.769531 102.738281 174.230469 103.960938 180.398438 106.269531 C 213.789062 118.730469 238.460938 162.769531 238.460938 215.171875 Z M 238.460938 215.171875 " style=" stroke:none;fill-rule:nonzero;fill:rgb(78.039216%,85.098039%,100%);fill-opacity:1;" />
<path d="M 350.800781 102.738281 L 350.800781 302.25 L 350.429688 302.25 C 349.640625 302.25 348.851562 302.238281 348.070312 302.21875 C 320.800781 301.488281 297.140625 290.308594 284.160156 265.441406 C 283.371094 263.941406 282.621094 262.371094 281.910156 260.769531 C 276.558594 248.589844 273.539062 233.5 273.539062 215.171875 C 273.539062 190.351562 279.070312 167.410156 288.449219 148.820312 C 288.679688 148.359375 288.960938 147.960938 289.269531 147.609375 C 292.28125 144.210938 298.480469 146.171875 298.480469 151.230469 L 298.480469 220.25 C 298.480469 223.980469 301.511719 227.011719 305.238281 227.011719 C 306.980469 227.011719 308.570312 226.351562 309.769531 225.269531 C 309.859375 225.191406 309.949219 225.109375 310.03125 225.03125 C 311.25 223.800781 312.011719 222.109375 312.011719 220.25 L 312.011719 121.980469 C 312.011719 119.859375 312.828125 117.851562 314.230469 116.308594 C 314.238281 116.300781 314.25 116.300781 314.25 116.289062 C 314.601562 115.910156 314.988281 115.558594 315.410156 115.238281 C 315.46875 115.199219 315.519531 115.148438 315.578125 115.109375 C 316.019531 114.78125 316.46875 114.511719 316.941406 114.289062 C 322.28125 111.660156 328.921875 115.550781 328.921875 121.871094 L 328.921875 220.25 C 328.921875 223.980469 331.941406 227.011719 335.679688 227.011719 C 337.550781 227.011719 339.238281 226.25 340.460938 225.03125 C 341.679688 223.800781 342.441406 222.109375 342.441406 220.25 L 342.441406 111.101562 C 342.441406 106.660156 345.910156 103.03125 350.28125 102.761719 C 350.308594 102.75 350.339844 102.75 350.371094 102.75 C 350.441406 102.738281 350.519531 102.738281 350.601562 102.738281 Z M 350.800781 102.738281 " style=" stroke:none;fill-rule:nonzero;fill:rgb(89.411765%,92.156863%,97.254902%);fill-opacity:1;" />
<path d="M 350.800781 103.339844 C 347.878906 106.441406 345.078125 109.78125 342.441406 113.351562 L 342.441406 111.101562 C 342.441406 106.660156 345.910156 103.03125 350.28125 102.761719 C 350.308594 102.75 350.339844 102.75 350.371094 102.75 C 350.441406 102.738281 350.519531 102.738281 350.601562 102.738281 L 350.800781 102.738281 C 350.988281 102.738281 351.171875 102.738281 351.359375 102.75 C 351.171875 102.949219 350.988281 103.140625 350.800781 103.339844 Z M 350.800781 103.339844 " style=" stroke:none;fill-rule:nonzero;fill:rgb(100%,100%,100%);fill-opacity:1;" />
<path d="M 353.320312 302.199219 C 352.480469 302.230469 351.640625 302.25 350.800781 302.25 L 350.429688 302.25 C 349.640625 302.25 348.851562 302.238281 348.070312 302.21875 C 320.800781 301.488281 297.140625 290.308594 284.160156 265.441406 C 283.371094 263.941406 282.621094 262.371094 281.910156 260.769531 C 276.558594 248.589844 273.539062 233.5 273.539062 215.171875 C 273.539062 190.351562 279.070312 167.410156 288.449219 148.820312 C 288.679688 148.359375 288.960938 147.960938 289.269531 147.609375 C 292.28125 144.210938 298.480469 146.171875 298.480469 151.230469 L 298.480469 220.25 C 298.480469 223.980469 301.511719 227.011719 305.238281 227.011719 C 306.980469 227.011719 308.570312 226.351562 309.769531 225.269531 C 309.859375 225.191406 309.949219 225.109375 310.03125 225.03125 C 311.25 223.800781 312.011719 222.109375 312.011719 220.25 L 312.011719 121.980469 C 312.011719 119.859375 312.828125 117.851562 314.230469 116.308594 C 314.238281 116.300781 314.25 116.300781 314.25 116.289062 C 314.601562 115.910156 314.988281 115.558594 315.410156 115.238281 C 315.46875 115.199219 315.519531 115.148438 315.578125 115.109375 C 316.019531 114.78125 316.46875 114.511719 316.941406 114.289062 C 322.28125 111.660156 328.921875 115.550781 328.921875 121.871094 L 328.921875 136.078125 C 318.769531 157.628906 312.820312 183.699219 312.820312 211.789062 C 312.820312 236.539062 317.429688 256.339844 325.488281 271.761719 C 331.929688 284.089844 340.570312 293.601562 350.800781 300.550781 C 351.628906 301.121094 352.46875 301.671875 353.320312 302.199219 Z M 353.320312 302.199219 " style=" stroke:none;fill-rule:nonzero;fill:rgb(100%,100%,100%);fill-opacity:1;" />
</g>
</svg>