<?xml version="1.0" encoding="iso-8859-1"?>
<!-- Generator: Adobe Illustrator 19.0.0, SVG Export Plug-In . SVG Version: 6.00 Build 0)  -->
<svg version="1.1" id="Capa_1" xmlns="http://www.w3.org/2000/svg" xmlns:xlink="http://www.w3.org/1999/xlink" x="0px" y="0px"
	 viewBox="0 0 512 512" style="enable-background:new 0 0 512 512;" xml:space="preserve">
<path style="fill:#1A6CA7;" d="M222.077,85.158h-78.443c-8.306,0-15.039-6.734-15.039-15.039v-55.08
	C128.596,6.734,135.329,0,143.635,0h78.443c8.306,0,15.039,6.734,15.039,15.039v55.08C237.117,78.425,230.383,85.158,222.077,85.158
	z"/>
<path style="fill:#DEF4FE;" d="M299.774,55.078H137.3c-36.383,0-65.982,29.599-65.982,65.982v324.958
	c0,36.383,29.599,65.982,65.982,65.982H374.7c36.383,0,65.982-29.599,65.982-65.982V195.985
	C440.682,118.288,377.471,55.078,299.774,55.078z M365.486,195.985v52.527L247.247,130.274h52.527
	C336.009,130.273,365.486,159.75,365.486,195.985z"/>
<path style="fill:#B3E4FD;" d="M299.774,55.078H256v75.196h43.774c36.235,0,65.711,29.477,65.711,65.711v52.527L256,139.027V512
	h118.7c36.383,0,65.982-29.599,65.982-65.982V195.985C440.682,118.288,377.471,55.078,299.774,55.078z"/>
<path style="fill:#57A25E;" d="M333.539,348.062l-10.854-18.8c4.465-1.642,8.084-5.363,9.377-10.315
	c2.097-8.037-2.716-16.252-10.753-18.35l-24.358-6.358c-3.86-1.008-7.961-0.44-11.403,1.576c-3.442,2.016-5.94,5.318-6.948,9.177
	l-6.358,24.359c-2.097,8.037,2.716,16.251,10.754,18.35c1.273,0.333,2.551,0.491,3.808,0.491c3.696,0,7.21-1.378,9.914-3.749
	l10.772,18.658c1.35,2.338,0.58,4.37,0,5.374c-0.579,1.004-1.955,2.687-4.655,2.687c-8.306,0-15.039,6.734-15.039,15.039
	c0,8.306,6.734,15.039,15.039,15.039c12.817,0,24.295-6.626,30.704-17.726S339.948,359.162,333.539,348.062z"/>
<g>
	<path style="fill:#8FD85E;" d="M258.032,361.319c-5.872-5.873-15.395-5.873-21.268,0c-2.735,2.735-4.18,6.263-4.367,9.844h-23.234
		c-2.7,0-4.076-1.683-4.655-2.687c-0.58-1.004-1.35-3.036,0-5.374c4.153-7.193,1.688-16.391-5.504-20.544
		c-7.194-4.155-16.391-1.688-20.544,5.504c-6.409,11.1-6.409,24.354,0,35.453s17.887,17.726,30.704,17.726h23.233
		c0.187,3.581,1.631,7.11,4.367,9.845c2.937,2.937,6.786,4.405,10.634,4.405s7.698-1.468,10.635-4.406l14.249-14.249
		c5.872-5.873,5.872-15.395,0-21.269L258.032,361.319z"/>
	<path style="fill:#8FD85E;" d="M197.654,324.768c1.007,3.86,3.506,7.161,6.948,9.177c2.326,1.364,4.953,2.064,7.604,2.064
		c1.27,0,2.548-0.161,3.798-0.487l21.59-5.636c8.037-2.097,12.852-10.313,10.754-18.35c-1.192-4.569-4.362-8.091-8.352-9.899
		l11.35-19.659c1.351-2.338,3.496-2.687,4.655-2.687c1.159,0,3.305,0.349,4.655,2.687c4.153,7.193,13.351,9.658,20.544,5.504
		c7.193-4.153,9.657-13.351,5.504-20.544c-6.409-11.1-17.887-17.726-30.703-17.726c-12.816,0-24.294,6.626-30.703,17.726
		l-11.211,19.419c-3.305-1.908-7.33-2.57-11.314-1.53c-8.037,2.097-12.852,10.313-10.754,18.35L197.654,324.768z"/>
</g>
<g>
	<path style="fill:#57A25E;" d="M258.032,361.319c-0.636-0.636-1.32-1.189-2.032-1.687v53.142c0.712-0.498,1.398-1.052,2.033-1.687
		l14.249-14.249c5.872-5.873,5.872-15.395,0-21.269L258.032,361.319z"/>
	<path style="fill:#57A25E;" d="M260.654,281.979c4.153,7.193,13.351,9.658,20.544,5.504c7.193-4.153,9.657-13.351,5.504-20.544
		c-6.409-11.1-17.887-17.726-30.703-17.726v30.078C257.159,279.292,259.305,279.641,260.654,281.979z"/>
</g>
<g>
</g>
<g>
</g>
<g>
</g>
<g>
</g>
<g>
</g>
<g>
</g>
<g>
</g>
<g>
</g>
<g>
</g>
<g>
</g>
<g>
</g>
<g>
</g>
<g>
</g>
<g>
</g>
<g>
</g>
</svg>
