<svg height="512pt" viewBox="0 0 512 512" width="512pt" xmlns="http://www.w3.org/2000/svg"><path d="m512 256c0 141.386719-114.613281 256-256 256s-256-114.613281-256-256 114.613281-256 256-256 256 114.613281 256 256zm0 0" fill="#6e79e4"/><path d="m262.953125 511.902344c138.171875-3.683594 249.046875-116.84375 249.046875-255.902344 0-7.46875-.339844-14.855469-.964844-22.160156l-159.507812-159.507813-94.917969 15.5v84.035157l-114.277344 4.464843 94.832031 94.832031-37.78125 175.167969zm0 0" fill="#2038da"/><path d="m312.617188 448.332031h-113.234376l-42.765624-286.664062h198.765624zm0 0" fill="#fef8c3"/><path d="m355.382812 161.667969h-99.835937v286.664062h57.070313zm0 0" fill="#fef49c"/><path d="m168.152344 239 31.230468 209.332031h113.234376l31.230468-209.332031zm0 0" fill="#ffd93b"/><path d="m343.847656 239h-88.300781v209.332031h57.070313zm0 0" fill="#fdba12"/><path d="m266.195312 394.332031h-20v-320h105.332032v20h-85.332032zm0 0" fill="#fff"/><path d="m255.546875 74.332031v320h10.648437v-300h85.332032v-20zm0 0" fill="#f2f2f2"/><path d="m142.332031 153.667969h227.332031v24.667969h-227.332031zm0 0" fill="#fee47f"/><path d="m255.546875 153.667969h114.121094v24.667969h-114.121094zm0 0" fill="#fedf81"/></svg>