<?xml version="1.0" encoding="iso-8859-1"?>
<!-- Generator: Adobe Illustrator 19.0.0, SVG Export Plug-In . SVG Version: 6.00 Build 0)  -->
<svg version="1.1" id="Capa_1" xmlns="http://www.w3.org/2000/svg" xmlns:xlink="http://www.w3.org/1999/xlink" x="0px" y="0px"
	 viewBox="0 0 512 512" style="enable-background:new 0 0 512 512;" xml:space="preserve">
<circle style="fill:#CA94FF;" cx="256" cy="256" r="256"/>
<path style="fill:#973BFF;" d="M512,256c0-6.495-0.246-12.933-0.722-19.307L371.551,96.966l-227.459,18.85l19.319,18.85
	l-19.319,18.85l19.319,18.85l-19.319,18.85l19.319,18.85l-19.319,18.85l20.796,20.239l11.225,169.52l92.993,92.993
	C404.4,504.847,512,392.99,512,256z"/>
<polygon style="fill:#FF5808;" points="350.223,144.091 352.719,106.391 207.554,106.391 207.554,144.091 "/>
<polygon style="fill:#FF9D05;" points="257.821,144.091 257.821,106.391 162.923,106.391 165.419,144.091 "/>
<polygon style="fill:#FDEC9D;" points="257.821,96.966 248.396,106.391 257.821,115.816 371.551,115.816 371.551,96.966 "/>
<rect x="144.09" y="96.97" style="fill:#FFF7D4;" width="113.73" height="18.85"/>
<polygon style="fill:#BF4206;" points="350.223,181.792 352.719,144.091 207.554,144.091 207.554,181.792 "/>
<polygon style="fill:#FF5808;" points="257.821,181.792 257.821,144.091 162.923,144.091 165.419,181.792 "/>
<polygon style="fill:#FBDA4A;" points="257.821,134.666 248.396,144.091 257.821,153.517 371.551,153.517 371.551,134.666 "/>
<rect x="144.09" y="134.67" style="fill:#FDEC9D;" width="113.73" height="18.85"/>
<polygon style="fill:#FF5808;" points="350.223,219.492 352.719,181.792 207.554,181.792 207.554,219.492 "/>
<polygon style="fill:#FF9D05;" points="257.821,219.492 257.821,181.792 162.923,181.792 165.419,219.492 "/>
<polygon style="fill:#FDEC9D;" points="257.821,172.367 248.396,181.792 257.821,191.217 371.551,191.217 371.551,172.367 "/>
<rect x="144.09" y="172.37" style="fill:#FFF7D4;" width="113.73" height="18.85"/>
<polygon style="fill:#BF4206;" points="352.719,219.492 339.531,418.676 257.821,418.676 207.554,219.492 "/>
<polygon style="fill:#FF5808;" points="257.821,219.492 257.821,418.676 176.112,418.676 162.923,219.492 "/>
<polygon style="fill:#FBDA4A;" points="257.821,210.067 248.396,219.492 257.821,228.917 371.551,228.917 371.551,210.067 "/>
<rect x="144.09" y="210.07" style="fill:#FDEC9D;" width="113.73" height="18.85"/>
<g>
</g>
<g>
</g>
<g>
</g>
<g>
</g>
<g>
</g>
<g>
</g>
<g>
</g>
<g>
</g>
<g>
</g>
<g>
</g>
<g>
</g>
<g>
</g>
<g>
</g>
<g>
</g>
<g>
</g>
</svg>
