<?xml version="1.0" encoding="iso-8859-1"?>
<!-- Generator: Adobe Illustrator 19.0.0, SVG Export Plug-In . SVG Version: 6.00 Build 0)  -->
<svg version="1.1" id="Capa_1" xmlns="http://www.w3.org/2000/svg" xmlns:xlink="http://www.w3.org/1999/xlink" x="0px" y="0px"
	 viewBox="0 0 512 512" style="enable-background:new 0 0 512 512;" xml:space="preserve">
<circle style="fill:#FC5B6F;" cx="256" cy="263.19" r="248.81"/>
<path style="fill:#DDDDDD;" d="M130.819,478.246C167.593,499.698,210.357,512,256,512s88.408-12.302,125.18-33.754H130.819z"/>
<path style="fill:#CECCCA;" d="M222.119,478.247h-91.3c24.227,14.132,51.054,24.291,79.592,29.58
	C200.309,498.654,205.057,478.247,222.119,478.247z"/>
<path style="fill:#EFEFEF;" d="M420.185,0h-45.96c-3.806,0-6.892,3.085-6.892,6.892v112.334c0,12.858-13.25,21.464-24.989,16.217
	c-8.045-3.596-14.875-7.755-30.676-7.755c-27.833,0-27.833,12.905-55.666,12.905c-27.834,0-27.834-12.905-55.668-12.905
	c-15.838,0-22.664,4.178-30.733,7.78c-11.717,5.229-24.935-3.353-24.935-16.183V6.757c0-3.731-3.025-6.756-6.756-6.756h-45.6
	c-3.911,0-7.081,3.17-7.081,7.082v437.044c15.479,14.615,32.828,27.268,51.658,37.556h238.226
	c18.83-10.287,36.179-22.941,51.659-37.556V6.586C426.771,2.949,423.823,0,420.185,0z"/>
<path style="fill:#DDDDDD;" d="M144.666,6.756c0-3.731-3.025-6.756-6.756-6.756h-45.6c-3.911,0-7.082,3.17-7.082,7.082v437.044
	c15.479,14.615,32.828,27.268,51.658,37.555h7.931C144.814,466.94,144.673,21.507,144.666,6.756z"/>
<circle style="fill:#32CC65;" cx="256" cy="316.03" r="110.34"/>
<path style="fill:#23B658;" d="M207.212,344.199c-25.811-44.706-16.776-99.962,18.67-134.335
	c-8.57,2.438-16.982,5.955-25.049,10.613c-52.773,30.469-70.854,97.949-40.386,150.722c30.469,52.773,97.949,70.854,150.722,40.386
	c8.067-4.658,15.319-10.184,21.716-16.387C285.393,408.709,233.022,388.905,207.212,344.199z"/>
<path style="fill:#FFFFFF;" d="M273.85,277.636c-2.07,1.271-1.772,4.366,0.501,5.22l26.088,9.797
	c1.783,0.669,3.719-0.52,3.927-2.412l1.15-10.409l1.91-17.289c0.267-2.414-2.36-4.079-4.429-2.808l-0.769,0.472
	c-0.79,0.486-1.824,0.244-2.318-0.541l-5.843-9.295c-2.325-3.699-6.388-5.944-10.758-5.944h-27.217l19.097,30.382
	c0.501,0.797,0.255,1.85-0.547,2.342L273.85,277.636z"/>
<g>
	<path style="fill:#EFEFEF;" d="M213.289,328.007c0.844,0.566,1.97-0.087,1.898-1.101l-2.251-31.883
		c-0.134-1.896-2.018-3.158-3.822-2.561l-11.931,3.951l-15.128,5.009c-2.301,0.762-2.72,3.837-0.706,5.186l1.108,0.742
		c0.76,0.509,0.978,1.531,0.491,2.306l-6.009,9.56c-1.788,2.844-1.821,6.453-0.085,9.329l13.938,23.103l16.197-25.767
		c0.507-0.807,1.582-1.036,2.374-0.505L213.289,328.007z"/>
	<path style="fill:#EFEFEF;" d="M256.093,244.425h-28.299c-3.697,0-7.133,1.899-9.101,5.029l-12.149,19.327
		c-0.487,0.775-0.27,1.797,0.491,2.306l21.28,14.257c0.793,0.531,1.867,0.302,2.374-0.505L256.093,244.425z"/>
</g>
<g>
	<path style="fill:#FFFFFF;" d="M214.071,380.643h22.105c0.934,0,1.692-0.758,1.692-1.692v-25.603c0-0.935-0.758-1.692-1.692-1.692
		h-45.38l14.499,24.032C207.149,378.763,210.479,380.643,214.071,380.643z"/>
	<path style="fill:#FFFFFF;" d="M290.946,351.655h-7.8c-0.935,0-1.692-0.758-1.692-1.692v-2.296c0-2.497-2.872-3.902-4.843-2.37
		l-25.494,19.818c-0.674,0.524-0.674,1.543,0,2.067l10.656,8.284L276.611,387c1.972,1.533,4.843,0.128,4.843-2.37v-2.296
		c0-0.934,0.758-1.692,1.692-1.692h15.701c3.148,0,6.067-1.648,7.693-4.343l14.868-24.644H321.4L290.946,351.655L290.946,351.655z"
		/>
	<path style="fill:#FFFFFF;" d="M335.065,318.926l-11.129-17.704c-0.494-0.785-1.528-1.027-2.318-0.541l-21.818,13.4
		c-0.802,0.493-1.048,1.545-0.547,2.342l22.147,35.233h0.008l13.748-22.788C337.006,325.802,336.971,321.956,335.065,318.926z"/>
</g>
<g>
	<path style="fill:#EFEFEF;" d="M209.314,366.149c0-6.232,3.439-11.655,8.517-14.494h-27.036l14.499,24.032
		c1.855,3.075,5.185,4.955,8.777,4.955h3.76C212.752,377.804,209.314,372.381,209.314,366.149z"/>
	<path style="fill:#EFEFEF;" d="M293.086,366.149c0-6.232,3.439-11.655,8.517-14.494h-10.657h-7.8c-0.935,0-1.692-0.758-1.692-1.692
		v-2.296c0-2.497-2.871-3.902-4.843-2.37l-25.494,19.817c-0.674,0.524-0.674,1.543,0,2.067l10.656,8.284L276.611,387
		c1.972,1.533,4.843,0.128,4.843-2.37v-2.296c0-0.934,0.758-1.692,1.692-1.692h15.701c0.777,0,1.539-0.102,2.272-0.294
		C296.311,377.441,293.086,372.178,293.086,366.149z"/>
	<path style="fill:#EFEFEF;" d="M269.947,265.028c0-9.169,7.433-16.601,16.601-16.601c2.659,0,5.163,0.641,7.392,1.753
		c-2.344-3.584-6.337-5.754-10.63-5.754h-27.217l13.933,22.166C269.977,266.076,269.947,265.556,269.947,265.028z"/>
</g>
<g>
</g>
<g>
</g>
<g>
</g>
<g>
</g>
<g>
</g>
<g>
</g>
<g>
</g>
<g>
</g>
<g>
</g>
<g>
</g>
<g>
</g>
<g>
</g>
<g>
</g>
<g>
</g>
<g>
</g>
</svg>
