<svg height="512pt" viewBox="0 0 512 512" width="512pt" xmlns="http://www.w3.org/2000/svg"><path d="m512 256c0 141.386719-114.613281 256-256 256s-256-114.613281-256-256 114.613281-256 256-256 256 114.613281 256 256zm0 0" fill="#2864f0"/><path d="m511.445312 272.695312-219.195312-219.195312-72.5 35.5-36.585938 355.382812 67.550782 67.550782c1.757812.035156 3.515625.066406 5.285156.066406 135.773438 0 246.839844-105.703125 255.445312-239.304688zm0 0" fill="#2332b7"/><path d="m172.957031 148.097656v39.066406l10.207031 25.453126v82.726562l-10.207031 25.453125v103.511719c0 13.722656 11.128907 24.851562 24.855469 24.851562h116.378906c13.722656 0 24.851563-11.125 24.851563-24.851562v-103.511719l-10.203125-25.453125v-82.726562l10.203125-25.453126v-39.070312c0-32.683594-26.496094-59.179688-59.179688-59.179688h-47.726562c-32.683594 0-59.179688 26.496094-59.179688 59.183594zm0 0" fill="#00cfff"/><path d="m339.042969 187.164062v-39.066406c0-32.6875-26.496094-59.183594-59.179688-59.183594h-23.910156v360.246094h58.234375c13.726562 0 24.855469-11.128906 24.855469-24.855468v-103.507813l-10.207031-25.453125v-82.726562zm0 0" fill="#0aaeef"/><path d="m183.164062 212.617188h145.675782v82.726562h-145.675782zm0 0" fill="#fff"/><path d="m255.953125 212.617188h72.882813v82.726562h-72.882813zm0 0" fill="#e0e0e0"/><path d="m219.75 53.5h72.5v35.5h-72.5zm0 0" fill="#3be3ff"/><path d="m255.953125 53.5h36.296875v35.5h-36.296875zm0 0" fill="#00cfff"/><path d="m274.203125 261.75c0 10.078125-8.171875 18.25-18.25 18.25s-18.25-8.171875-18.25-18.25 18.25-33.75 18.25-33.75 18.25 23.671875 18.25 33.75zm0 0" fill="#00cfff"/><path d="m255.953125 280c10.078125 0 18.25-8.171875 18.25-18.25s-18.25-33.75-18.25-33.75zm0 0" fill="#0aaeef"/></svg>