<?xml version="1.0" encoding="iso-8859-1"?>
<!-- Generator: Adobe Illustrator 19.0.0, SVG Export Plug-In . SVG Version: 6.00 Build 0)  -->
<svg version="1.1" id="Layer_1" xmlns="http://www.w3.org/2000/svg" xmlns:xlink="http://www.w3.org/1999/xlink" x="0px" y="0px"
	 viewBox="0 0 512 512" style="enable-background:new 0 0 512 512;" xml:space="preserve">
<circle style="fill:#00AEE9;" cx="256" cy="256" r="256"/>
<path style="fill:#0082D1;" d="M512,256c0-10.537-0.651-20.921-1.888-31.124l-120.55-120.551H122.438v39.86l17.639,12.301
	l15.115,249.133l17.465,14.048v14.702l77.558,77.558C252.139,511.97,254.066,512,256,512C397.385,512,512,397.385,512,256z"/>
<rect x="172.66" y="402.34" style="fill:#FFA91F;" width="166.68" height="32.03"/>
<rect x="256" y="402.34" style="fill:#E67500;" width="83.34" height="32.03"/>
<polygon style="fill:#FFFFFF;" points="139.179,141.68 155.192,405.619 356.801,405.619 372.814,141.68 "/>
<polygon style="fill:#FFED97;" points="372.81,141.68 372.66,144.19 356.8,405.62 256,405.62 256,141.68 "/>
<rect x="122.44" y="104.33" style="fill:#FFA91F;" width="267.12" height="39.86"/>
<rect x="256" y="104.32" style="fill:#E67500;" width="133.56" height="39.87"/>
<path style="fill:#FFEC97;" d="M194.41,293.757c0,20.9-16.94,37.84-37.84,37.84c-2.01,0-3.98-0.16-5.9-0.46l-4.47-73.79
	c3.3-0.93,6.77-1.43,10.37-1.43C177.47,255.917,194.41,272.857,194.41,293.757z"/>
<path style="fill:#FFDB2D;" d="M365.79,257.347l-4.47,73.79c-1.92,0.3-3.89,0.46-5.89,0.46c-20.9,0-37.84-16.94-37.84-37.84
	s16.94-37.84,37.84-37.84C359.02,255.917,362.5,256.417,365.79,257.347z"/>
<g>
	<circle style="fill:#FFEC97;" cx="256" cy="207.89" r="37.84"/>
	<path style="fill:#FFEC97;" d="M293.84,388.287c0,6.25-1.51,12.14-4.19,17.33h-67.3c-2.68-5.19-4.19-11.08-4.19-17.33
		c0-20.9,16.94-37.84,37.84-37.84S293.84,367.387,293.84,388.287z"/>
</g>
<g>
	<path style="fill:#FFDB2D;" d="M293.84,207.89c0,20.9-16.94,37.84-37.84,37.84v-75.68C276.9,170.05,293.84,186.99,293.84,207.89z"
		/>
	<path style="fill:#FFDB2D;" d="M293.84,388.29c0,4.97-0.95,9.71-2.69,14.05c-0.45,1.12-0.95,2.21-1.5,3.28H256v-55.17
		C276.9,350.45,293.84,367.39,293.84,388.29z"/>
</g>
<g>
</g>
<g>
</g>
<g>
</g>
<g>
</g>
<g>
</g>
<g>
</g>
<g>
</g>
<g>
</g>
<g>
</g>
<g>
</g>
<g>
</g>
<g>
</g>
<g>
</g>
<g>
</g>
<g>
</g>
</svg>
