<svg height="496pt" viewBox="-104 0 496 496.02583" width="496pt" xmlns="http://www.w3.org/2000/svg"><path d="m280.011719 192.027344v-16c0-4.417969-3.582031-8-8-8h-.40625c-4.070313-67.488282-59.992188-120.136719-127.601563-120.136719s-123.527344 52.648437-127.597656 120.136719h-.394531c-4.417969 0-8 3.582031-8 8v16c-4.417969 0-8.0000002 3.582031-8.0000002 8v24c0 4.417968 3.5820312 8 8.0000002 8h8.695312l23.304688 256.71875c.375 4.132812 3.847656 7.296875 8 7.28125h192c4.152343.015625 7.628906-3.148438 8-7.28125l23.304687-256.71875h8.695313c4.417969 0 8-3.582032 8-8v-24c0-4.417969-3.582031-8-8-8zm-136-128c58.695312.089844 107.375 45.457031 111.59375 104h-223.199219c4.21875-58.550782 52.90625-103.917969 111.605469-104zm-120 120h240v8h-240zm208.695312 296h-177.390625l-14.824218-163.113282c11.066406-11.671874 25.929687-19.011718 41.921874-20.703124 18.480469-1.464844 37.453126 6.054687 56.414063 22.398437 16.199219 15.480469 37.492187 24.519531 59.878906 25.417969 2.296875 0 4.59375-.105469 6.890625-.328125 14.960938-1.660157 29.164063-7.449219 41.023438-16.722657zm16.105469-176.800782c-.054688.0625-.136719.085938-.191406.160157-11.347656 13.3125-27.1875 22-44.511719 24.40625-18.089844 1.753906-36.464844-5.429688-54.839844-21.269531-6.375-5.527344-13.277343-10.414063-20.609375-14.59375l13.160156-41.503907c1.339844-4.210937-.992187-8.714843-5.203124-10.050781-4.214844-1.339844-8.714844.988281-10.050782 5.203125l-12.546875 39.421875c-2.90625-1.058594-5.871093-1.960938-8.878906-2.703125l10.136719-31.871094c1.324218-4.214843-1.015625-8.707031-5.234375-10.03125-4.214844-1.328125-8.703125 1.015625-10.03125 5.230469l-10.976563 34.480469c-2.652344-.082031-5.308594-.019531-7.957031.183593-15.460937 1.4375-30.183594 7.300782-42.402344 16.878907l-5.863281-65.140625h222.480469zm23.199219-87.199218h-256v-8h256zm0 0"/><path d="m187.214844 81.464844c-4.210938-1.332032-8.703125.996094-10.042969 5.199218l-20 62.816407c-1.339844 4.210937.988281 8.710937 5.195313 10.054687 4.210937 1.339844 8.710937-.988281 10.054687-5.199218l20-62.820313c1.335937-4.214844-.996094-8.714844-5.207031-10.050781zm0 0"/><path d="m173.957031 39.648438c2.027344.644531 4.226563.457031 6.113281-.523438 1.886719-.980469 3.304688-2.671875 3.941407-4.699219l5.175781-16.265625 8.800781 2.9375-5.070312 15.96875c-1.339844 4.210938.988281 8.710938 5.203125 10.050782 4.210937 1.339843 8.714844-.992188 10.050781-5.203126l7.464844-23.488281c1.328125-4.171875-.945313-8.632812-5.097657-10.015625l-24-8c-2.03125-.675781-4.246093-.511718-6.15625.460938-1.90625.972656-3.34375 2.667968-3.992187 4.707031l-7.632813 24c-.652343 2.023437-.46875 4.226563.507813 6.117187.976563 1.886719 2.664063 3.3125 4.691406 3.953126zm0 0"/><path d="m163.53125 72.402344c-4.207031-1.339844-8.707031.988281-10.046875 5.199218l-22.878906 71.878907c-1.339844 4.210937.984375 8.710937 5.195312 10.054687 4.210938 1.339844 8.710938-.988281 10.050781-5.199218l22.882813-71.910157c1.320313-4.203125-1.003906-8.683593-5.203125-10.023437zm0 0"/><path d="m128.011719 360.027344c0-17.675782-14.324219-32-32-32-17.671875 0-32 14.324218-32 32 0 17.671875 14.328125 32 32 32 17.675781 0 32-14.328125 32-32zm-48 0c0-8.839844 7.164062-16 16-16 8.835937 0 16 7.160156 16 16 0 8.835937-7.164063 16-16 16-8.835938 0-16-7.164063-16-16zm0 0"/><path d="m128.011719 400.027344c-17.671875 0-32 14.324218-32 32 0 17.671875 14.328125 32 32 32 17.675781 0 32-14.328125 32-32 0-17.675782-14.324219-32-32-32zm0 48c-8.835938 0-16-7.164063-16-16 0-8.839844 7.164062-16 16-16 8.835937 0 16 7.160156 16 16 0 8.835937-7.164063 16-16 16zm0 0"/><path d="m192.011719 368.027344c-13.253907 0-24 10.742187-24 24 0 13.253906 10.746093 24 24 24 13.257812 0 24-10.746094 24-24 0-13.257813-10.742188-24-24-24zm0 32c-4.417969 0-8-3.582032-8-8 0-4.417969 3.582031-8 8-8s8 3.582031 8 8c0 4.417968-3.582031 8-8 8zm0 0"/></svg>