<?xml version="1.0" encoding="utf-8"?>
<!-- Generator: Adobe Illustrator 22.0.1, SVG Export Plug-In . SVG Version: 6.00 Build 0)  -->
<svg version="1.1" id="Capa_1" xmlns="http://www.w3.org/2000/svg" xmlns:xlink="http://www.w3.org/1999/xlink" x="0px" y="0px"
	 viewBox="0 0 247.7 77" style="enable-background:new 0 0 247.7 77;" xml:space="preserve">
<style type="text/css">
	.st0{fill:#FFFFFF;}
	.st1{enable-background:new    ;}
</style>
<g id="LOGO">
	<path id="mapita3" class="st0" d="M54.6,33.8c0,0,0.4-0.5,0.6-1.1c-0.6-0.1-1.2-0.1-1.9-0.1c-2.7,0-5.3,0.7-7.5,1.9
		c0.1,0.3,0.3,0.6,0.4,0.6c0.5,0,0.7,0,1.6,0.9c0.9,0.9,0.1,1,1,1.9s0.8-0.7,1.4-1.6c0.6-0.9,1.8-0.8,2.9-0.9
		C54.2,35.3,54.6,33.8,54.6,33.8z"/>
	<path id="mapita2" class="st0" d="M48.4,55.3c-1.3-0.3-2.2-1.1-2.7-1.9s-2-2.7-2.7-2.6s-1.7,0.1-1.7-0.6s-0.1-1.3-1.4-2.2
		s-0.6-1.8,0-1.7c0.6,0.1,0.9,0.7,1.5,1.8c0.4,0.9,1.6-0.3,0.7-1c-0.9-0.7-0.5-1.1-0.5-1.9s1.4-1.9,2.1-2.2c0.7-0.2,1-0.1,1.2-1.6
		s0,0,1.1-0.3s1.2-1.1-1.1-1.8c-2.4-0.7,0.2-1,0.8-1s0.3-1.1-1.1-1.7c-0.7-0.3-0.8-0.5-0.8-0.7c-3.2,2.4-5.4,6-6.1,10.1
		c0.1,0.9,0.3,1.8,0.6,2.4c0.6,1,0.6,1,1.5,2.3s0.9,0.4,1.4,1.3s-0.1,2.3,0.1,3.2c0.2,0.9,0.7,1.7,1.4,2.3c0.7,0.6,0.8,1.9,0.9,3.1
		c0,0.1,0,0.2,0,0.3c0.6,0.5,1.3,0.9,1.9,1.3c0.2-0.4,0.5-0.8,0.7-1c0.5-0.5,0.6-1.5,1.4-1.8c0.8-0.3,0.9-1.7,1.6-2.3
		C50.1,56.4,49.6,55.6,48.4,55.3z"/>
	<path id="mapita1" class="st0" d="M66.3,45.5c1.2,0.7,1.1,1.7,2.7,1c-0.3-3.2-1.7-6.1-3.7-8.4c-0.4,0.3-0.8,0.5-1,0.1
		c-0.8-1-1.9-3.3-2.9-2.9s-2.3,0.4-2.3,1.5s1.3,2.3,0,2.4s-0.8-0.7-1.9-1c-1.1-0.3-2.2,0.5-1.8,1c0.5,0.4,1.2,0.4,1.5,1
		s1.3,1.4,0.2,1.4c-1,0-2,0.1-1.9,1c0.2,0.9,1.8,0.2,2.2,0c0.5-0.2,1-1.4,2.5-0.8s1.3,1.4,2.4,1.3s3.1,0.6,2.3,1.1
		c-0.8,0.6-0.8,1-2.2,1s-1.8-0.7-3.1-1.4c-1.3-0.7-2.5,0-3.4,0.7s-2.9,2.9-2.6,5c0.2,2.2,1.1,3.3,3.2,3.3c2.1,0,2.7-0.7,2.7,1.6
		c0,2.3,1.1,3.7,0.8,4.9c-0.3,1.3-1,3.1,0,2.5c1-0.6,3.9-2.3,4.2-3.5c0.3-1.3-0.2-2.7,0.5-4.1s2.2-0.7,2.1-2.1s-2.6-1.6-1.5-2.5
		s1.7,0.1,2.1-1.1c0.3-1.1-0.3-1.5-1.3-2.3c-0.8-0.6-0.8-0.6-0.8-0.6S64.9,44.7,66.3,45.5z"/>
	<path id="mundito1" class="st0" d="M38.5,0C17.3,0,0,17.2,0,38.5S17.2,77,38.5,77S77,59.8,77,38.5S59.8,0,38.5,0z M44.7,10.8
		c3.7,0,6.2,1,7.6,2.6l4.5,7.4l4.1-2.1l-7.1,11.8l-13.9-1.2l3.5-1.8l-5.3-10.1c-2.4-6.1-7-6.6-7-6.6S38.6,10.8,44.7,10.8z M26,12.6
		c0,0,7.5-4.2,12.1,7.5l-6.9,11.4l-12.5-7.8L26,12.6z M9.4,31l13.7-0.3l6.3,12.4L26,41l-5,8.6C18.7,51,6.1,48.7,9.5,40.9l3.8-7.6
		L9.4,31z M35.8,66.2H23.9c0,0-4.4,0.5-6.6-3.2L9.7,47.8c0.5,0.9,2.9,3.8,10.8,3.5h15.3V66.2z M53.4,64.8c-9.1,0-16.4-7.4-16.4-16.4
		s7.3-16.5,16.4-16.5s16.4,7.4,16.4,16.5S62.4,64.8,53.4,64.8z"/>
	<g class="st1">
		<path class="st0" d="M82.5,55.6V39.3h6.9c0.8,0,1.5,0.2,2.1,0.5c0.6,0.3,1.2,0.7,1.7,1.3c0.5,0.5,0.8,1.1,1.1,1.8
			c0.3,0.7,0.4,1.3,0.4,2c0,0.7-0.1,1.4-0.4,2.1s-0.6,1.2-1.1,1.8c-0.4,0.5-1,0.9-1.6,1.2c-0.6,0.3-1.3,0.5-2.1,0.5h-3.3v5.2H82.5z
			 M86.2,47.1h3.1c0.4,0,0.8-0.2,1.1-0.6c0.3-0.4,0.5-0.9,0.5-1.7c0-0.4,0-0.7-0.1-1c-0.1-0.3-0.2-0.5-0.4-0.7
			c-0.2-0.2-0.4-0.3-0.6-0.4c-0.2-0.1-0.4-0.1-0.6-0.1h-2.9V47.1z"/>
		<path class="st0" d="M96.7,55.6V39.3h3.7v12.9h7.9v3.3H96.7z"/>
		<path class="st0" d="M114.5,39.3h3.4l5.9,16.2H120l-1.3-3.6h-5l-1.2,3.6h-3.8L114.5,39.3z M118.1,49.3l-1.9-5.7l-1.9,5.7H118.1z"
			/>
		<path class="st0" d="M134.9,44.1c0-0.1-0.2-0.2-0.5-0.3c-0.3-0.2-0.6-0.3-1-0.5s-0.9-0.3-1.3-0.5c-0.5-0.1-1-0.2-1.5-0.2
			c-1.3,0-2,0.4-2,1.3c0,0.3,0.1,0.5,0.2,0.7c0.1,0.2,0.4,0.3,0.6,0.5c0.3,0.1,0.6,0.3,1.1,0.4c0.4,0.1,0.9,0.3,1.5,0.4
			c0.8,0.2,1.5,0.4,2.1,0.7c0.6,0.3,1.2,0.6,1.6,0.9c0.4,0.4,0.8,0.8,1,1.4c0.2,0.5,0.4,1.2,0.4,1.9c0,0.9-0.2,1.7-0.5,2.3
			s-0.8,1.1-1.4,1.5c-0.6,0.4-1.2,0.7-1.9,0.8s-1.5,0.3-2.3,0.3c-0.6,0-1.2,0-1.8-0.1c-0.6-0.1-1.2-0.2-1.8-0.4
			c-0.6-0.2-1.2-0.4-1.7-0.6c-0.6-0.2-1.1-0.5-1.5-0.8l1.6-3.3c0.1,0.1,0.3,0.2,0.6,0.4c0.3,0.2,0.8,0.4,1.2,0.6
			c0.5,0.2,1,0.4,1.7,0.6c0.6,0.2,1.2,0.3,1.9,0.3c1.3,0,2-0.4,2-1.2c0-0.3-0.1-0.6-0.3-0.8s-0.5-0.4-0.8-0.5s-0.8-0.3-1.2-0.4
			c-0.5-0.1-1-0.3-1.6-0.5c-0.7-0.2-1.4-0.5-1.9-0.7c-0.5-0.3-1-0.6-1.4-0.9c-0.4-0.4-0.6-0.8-0.8-1.2s-0.3-1-0.3-1.6
			c0-0.9,0.2-1.6,0.5-2.3c0.3-0.7,0.8-1.2,1.3-1.7c0.5-0.4,1.2-0.8,1.9-1c0.7-0.2,1.5-0.3,2.3-0.3c0.6,0,1.1,0.1,1.7,0.2
			c0.5,0.1,1.1,0.2,1.6,0.4s1,0.4,1.4,0.6c0.4,0.2,0.8,0.4,1.2,0.6L134.9,44.1z"/>
		<path class="st0" d="M151.5,42.6h-4.9v12.9h-3.7V42.6h-5v-3.3h13.6V42.6z"/>
		<path class="st0" d="M153.3,55.6V39.3h3.7v16.2H153.3z"/>
		<path class="st0" d="M159.2,47.3c0-1,0.2-1.9,0.5-2.9c0.4-1,0.9-1.8,1.6-2.6c0.7-0.8,1.6-1.4,2.6-1.9c1-0.5,2.1-0.7,3.4-0.7
			c1.5,0,2.8,0.3,4,1c1.1,0.7,2,1.5,2.5,2.6l-2.9,2c-0.2-0.4-0.4-0.8-0.7-1.1c-0.3-0.3-0.6-0.5-0.9-0.7c-0.3-0.2-0.7-0.3-1-0.4
			c-0.4-0.1-0.7-0.1-1-0.1c-0.7,0-1.3,0.1-1.9,0.4c-0.5,0.3-1,0.7-1.3,1.1s-0.6,1-0.8,1.6c-0.2,0.6-0.3,1.2-0.3,1.8
			c0,0.6,0.1,1.3,0.3,1.9s0.5,1.1,0.9,1.6c0.4,0.5,0.8,0.8,1.3,1.1s1.1,0.4,1.8,0.4c0.3,0,0.7,0,1-0.1c0.4-0.1,0.7-0.2,1-0.4
			c0.3-0.2,0.6-0.4,0.9-0.7c0.3-0.3,0.5-0.6,0.7-1l3.1,1.8c-0.2,0.6-0.6,1.1-1.1,1.6c-0.5,0.5-1,0.9-1.7,1.2c-0.6,0.3-1.3,0.6-2,0.7
			c-0.7,0.2-1.4,0.3-2.1,0.3c-1.2,0-2.3-0.2-3.2-0.7c-1-0.5-1.8-1.1-2.5-1.9c-0.7-0.8-1.3-1.7-1.6-2.7
			C159.4,49.4,159.2,48.3,159.2,47.3z"/>
		<path class="st0" d="M185.6,44.1c0-0.1-0.2-0.2-0.5-0.3c-0.3-0.2-0.6-0.3-1-0.5s-0.9-0.3-1.3-0.5c-0.5-0.1-1-0.2-1.5-0.2
			c-1.3,0-2,0.4-2,1.3c0,0.3,0.1,0.5,0.2,0.7c0.1,0.2,0.4,0.3,0.6,0.5c0.3,0.1,0.6,0.3,1.1,0.4c0.4,0.1,0.9,0.3,1.5,0.4
			c0.8,0.2,1.5,0.4,2.1,0.7c0.6,0.3,1.2,0.6,1.6,0.9c0.4,0.4,0.8,0.8,1,1.4c0.2,0.5,0.4,1.2,0.4,1.9c0,0.9-0.2,1.7-0.5,2.3
			s-0.8,1.1-1.4,1.5c-0.6,0.4-1.2,0.7-1.9,0.8s-1.5,0.3-2.3,0.3c-0.6,0-1.2,0-1.8-0.1c-0.6-0.1-1.2-0.2-1.8-0.4
			c-0.6-0.2-1.2-0.4-1.7-0.6c-0.6-0.2-1.1-0.5-1.5-0.8l1.6-3.3c0.1,0.1,0.3,0.2,0.6,0.4c0.3,0.2,0.8,0.4,1.2,0.6
			c0.5,0.2,1,0.4,1.7,0.6c0.6,0.2,1.2,0.3,1.9,0.3c1.3,0,2-0.4,2-1.2c0-0.3-0.1-0.6-0.3-0.8s-0.5-0.4-0.8-0.5s-0.8-0.3-1.2-0.4
			c-0.5-0.1-1-0.3-1.6-0.5c-0.7-0.2-1.4-0.5-1.9-0.7c-0.5-0.3-1-0.6-1.4-0.9c-0.4-0.4-0.6-0.8-0.8-1.2c-0.2-0.5-0.3-1-0.3-1.6
			c0-0.9,0.2-1.6,0.5-2.3c0.3-0.7,0.8-1.2,1.3-1.7c0.5-0.4,1.2-0.8,1.9-1c0.7-0.2,1.5-0.3,2.3-0.3c0.6,0,1.1,0.1,1.7,0.2
			c0.5,0.1,1.1,0.2,1.6,0.4s1,0.4,1.4,0.6c0.4,0.2,0.8,0.4,1.2,0.6L185.6,44.1z"/>
		<path class="st0" d="M201.3,52.3v3.3h-11.4V39.3h11.2v3.3h-7.4v3.2h6.4v3h-6.4v3.5H201.3z"/>
		<path class="st0" d="M215,52.3v3.3h-11.4V39.3h11.2v3.3h-7.4v3.2h6.4v3h-6.4v3.5H215z"/>
		<path class="st0" d="M221,46.3v9.3h-3.7V39.3h2.9l7.6,9.5v-9.5h3.7v16.2h-3L221,46.3z"/>
	</g>
	<g class="st1">
		<path class="st0" d="M81.8,36.3V20.1h6.7c0.7,0,1.3,0.1,1.9,0.4c0.6,0.3,1.1,0.7,1.5,1.2c0.4,0.5,0.8,1,1,1.6s0.4,1.2,0.4,1.9
			c0,0.7-0.1,1.3-0.3,1.9s-0.5,1.2-1,1.6c-0.4,0.5-0.9,0.9-1.5,1.1c-0.6,0.3-1.2,0.4-1.9,0.4h-5.3v6H81.8z M83.4,28.9h5.2
			c0.5,0,0.9-0.1,1.3-0.3c0.4-0.2,0.7-0.5,1-0.8c0.3-0.3,0.5-0.7,0.6-1.2s0.2-0.9,0.2-1.4c0-0.5-0.1-1-0.3-1.4s-0.4-0.8-0.7-1.2
			c-0.3-0.3-0.6-0.6-1.1-0.8c-0.4-0.2-0.8-0.3-1.3-0.3h-5V28.9z"/>
		<path class="st0" d="M96,36.3V20.1h6.9c0.7,0,1.3,0.1,1.9,0.4c0.6,0.3,1.1,0.7,1.5,1.2c0.4,0.5,0.8,1,1,1.6
			c0.2,0.6,0.4,1.2,0.4,1.9c0,0.6-0.1,1.2-0.3,1.7c-0.2,0.5-0.4,1-0.7,1.5c-0.3,0.4-0.7,0.8-1.1,1.1s-0.9,0.5-1.5,0.6l4,6.3h-1.8
			l-3.8-6h-4.8v6H96z M97.6,28.9h5.3c0.5,0,0.9-0.1,1.3-0.3c0.4-0.2,0.7-0.5,1-0.8c0.3-0.4,0.5-0.7,0.6-1.2c0.2-0.4,0.2-0.9,0.2-1.4
			s-0.1-1-0.3-1.4s-0.4-0.8-0.7-1.2c-0.3-0.3-0.6-0.6-1.1-0.8c-0.4-0.2-0.8-0.3-1.3-0.3h-5.2V28.9z"/>
		<path class="st0" d="M117.5,36.5c-1.1,0-2.2-0.2-3.1-0.7c-0.9-0.5-1.7-1.1-2.4-1.9c-0.7-0.8-1.2-1.6-1.6-2.6c-0.4-1-0.5-2-0.5-3
			c0-1.1,0.2-2.1,0.6-3.1c0.4-1,0.9-1.9,1.6-2.6s1.5-1.4,2.4-1.8c0.9-0.4,1.9-0.7,3-0.7c1.1,0,2.2,0.2,3.1,0.7
			c0.9,0.5,1.7,1.1,2.4,1.9c0.7,0.8,1.2,1.7,1.5,2.6s0.5,2,0.5,3c0,1.1-0.2,2.1-0.6,3.1c-0.4,1-0.9,1.9-1.6,2.6
			c-0.7,0.8-1.5,1.4-2.4,1.8C119.6,36.2,118.5,36.5,117.5,36.5z M111.5,28.2c0,0.9,0.1,1.7,0.4,2.5c0.3,0.8,0.7,1.5,1.2,2.2
			c0.5,0.6,1.2,1.1,1.9,1.5c0.7,0.4,1.5,0.6,2.4,0.6c0.9,0,1.7-0.2,2.5-0.6c0.7-0.4,1.4-0.9,1.9-1.6c0.5-0.6,0.9-1.4,1.2-2.2
			s0.4-1.6,0.4-2.5c0-0.9-0.1-1.7-0.4-2.5c-0.3-0.8-0.7-1.5-1.2-2.2c-0.5-0.6-1.2-1.1-1.9-1.5c-0.7-0.4-1.5-0.6-2.4-0.6
			c-0.9,0-1.7,0.2-2.5,0.6c-0.7,0.4-1.4,0.9-1.9,1.5c-0.5,0.6-0.9,1.4-1.2,2.2C111.6,26.6,111.5,27.4,111.5,28.2z"/>
		<path class="st0" d="M127,28.1c0-1,0.2-1.9,0.5-2.9c0.3-1,0.8-1.8,1.5-2.6c0.7-0.8,1.5-1.4,2.4-1.9c1-0.5,2-0.7,3.3-0.7
			c1.4,0,2.7,0.3,3.7,1s1.8,1.5,2.3,2.6l-1.3,0.8c-0.3-0.5-0.6-1-0.9-1.3c-0.4-0.4-0.8-0.7-1.2-0.9c-0.4-0.2-0.9-0.4-1.3-0.5
			s-0.9-0.1-1.3-0.1c-1,0-1.8,0.2-2.6,0.6c-0.7,0.4-1.4,0.9-1.9,1.6c-0.5,0.6-0.9,1.4-1.2,2.2s-0.4,1.6-0.4,2.4
			c0,0.9,0.2,1.8,0.5,2.6c0.3,0.8,0.7,1.6,1.3,2.2s1.2,1.1,1.9,1.5c0.7,0.4,1.5,0.6,2.4,0.6c0.5,0,0.9-0.1,1.4-0.2
			c0.5-0.1,0.9-0.3,1.4-0.5c0.4-0.3,0.9-0.6,1.2-0.9s0.7-0.8,1-1.4l1.3,0.7c-0.3,0.6-0.6,1.1-1.1,1.6c-0.5,0.5-1,0.9-1.6,1.2
			c-0.6,0.3-1.2,0.6-1.8,0.7s-1.3,0.3-1.9,0.3c-1.1,0-2.1-0.2-3.1-0.7c-0.9-0.5-1.7-1.1-2.4-1.9c-0.7-0.8-1.2-1.7-1.6-2.7
			C127.2,30.2,127,29.2,127,28.1z"/>
		<path class="st0" d="M154.7,34.9v1.4h-10.9V20.1h10.7v1.4h-9.1v5.8h7.9v1.3h-7.9v6.2H154.7z"/>
		<path class="st0" d="M166.8,23.2c-0.5-0.5-1.1-0.9-1.8-1.3c-0.8-0.3-1.6-0.5-2.6-0.5c-1.4,0-2.5,0.3-3.1,0.8c-0.7,0.5-1,1.3-1,2.2
			c0,0.5,0.1,0.9,0.3,1.2s0.4,0.6,0.8,0.8c0.4,0.2,0.8,0.4,1.4,0.6s1.2,0.3,2,0.5c0.9,0.2,1.6,0.4,2.3,0.6c0.7,0.2,1.3,0.5,1.8,0.9
			s0.9,0.8,1.1,1.2c0.3,0.5,0.4,1.1,0.4,1.8c0,0.7-0.1,1.4-0.4,1.9c-0.3,0.5-0.7,1-1.2,1.4c-0.5,0.4-1.1,0.6-1.9,0.8
			c-0.7,0.2-1.5,0.3-2.4,0.3c-2.5,0-4.7-0.8-6.5-2.4l0.8-1.3c0.3,0.3,0.6,0.6,1,0.9c0.4,0.3,0.9,0.5,1.3,0.7c0.5,0.2,1,0.4,1.6,0.5
			s1.2,0.2,1.8,0.2c1.3,0,2.3-0.2,3-0.7c0.7-0.5,1.1-1.2,1.1-2.1c0-0.5-0.1-0.9-0.3-1.3c-0.2-0.3-0.5-0.6-0.9-0.9
			c-0.4-0.3-0.9-0.5-1.5-0.7s-1.3-0.4-2.1-0.5c-0.9-0.2-1.6-0.4-2.2-0.6c-0.6-0.2-1.2-0.5-1.6-0.8c-0.4-0.3-0.8-0.7-1-1.2
			c-0.2-0.4-0.3-1-0.3-1.7c0-0.7,0.1-1.4,0.4-2c0.3-0.6,0.7-1.1,1.2-1.5c0.5-0.4,1.1-0.7,1.8-0.9c0.7-0.2,1.5-0.3,2.3-0.3
			c1.1,0,2,0.2,2.9,0.5c0.8,0.3,1.6,0.8,2.3,1.4L166.8,23.2z"/>
		<path class="st0" d="M176,20.1h1.3l6.7,16.2h-1.7l-2.1-5.1H173l-2.1,5.1h-1.7L176,20.1z M179.9,30l-3.3-8l-3.3,8H179.9z"/>
		<path class="st0" d="M186.4,36.3V20.1h5.5c1.3,0,2.4,0.2,3.4,0.6c1,0.4,1.8,1,2.4,1.7c0.6,0.7,1.1,1.6,1.5,2.6
			c0.3,1,0.5,2,0.5,3.1c0,1.2-0.2,2.4-0.5,3.3c-0.4,1-0.9,1.9-1.6,2.6c-0.7,0.7-1.5,1.3-2.4,1.6c-1,0.4-2,0.6-3.2,0.6H186.4z
			 M198.1,28.2c0-1-0.1-1.9-0.4-2.7c-0.3-0.8-0.7-1.5-1.2-2.1c-0.5-0.6-1.2-1.1-1.9-1.4c-0.8-0.3-1.6-0.5-2.6-0.5H188v13.4h3.9
			c1,0,1.9-0.2,2.7-0.5c0.8-0.3,1.4-0.8,1.9-1.4c0.5-0.6,0.9-1.3,1.2-2.1C197.9,30.1,198.1,29.2,198.1,28.2z"/>
		<path class="st0" d="M209.3,36.5c-1.1,0-2.2-0.2-3.1-0.7c-0.9-0.5-1.7-1.1-2.4-1.9c-0.7-0.8-1.2-1.6-1.6-2.6c-0.4-1-0.5-2-0.5-3
			c0-1.1,0.2-2.1,0.6-3.1c0.4-1,0.9-1.9,1.6-2.6s1.5-1.4,2.4-1.8c0.9-0.4,1.9-0.7,3-0.7c1.1,0,2.2,0.2,3.1,0.7
			c0.9,0.5,1.7,1.1,2.4,1.9c0.7,0.8,1.2,1.7,1.5,2.6c0.4,1,0.5,2,0.5,3c0,1.1-0.2,2.1-0.6,3.1c-0.4,1-0.9,1.9-1.6,2.6
			c-0.7,0.8-1.5,1.4-2.4,1.8S210.3,36.5,209.3,36.5z M203.2,28.2c0,0.9,0.1,1.7,0.4,2.5c0.3,0.8,0.7,1.5,1.2,2.2
			c0.5,0.6,1.2,1.1,1.9,1.5s1.5,0.6,2.4,0.6c0.9,0,1.7-0.2,2.5-0.6c0.7-0.4,1.4-0.9,1.9-1.6c0.5-0.6,0.9-1.4,1.2-2.2
			c0.3-0.8,0.4-1.6,0.4-2.5c0-0.9-0.1-1.7-0.4-2.5c-0.3-0.8-0.7-1.5-1.2-2.2c-0.5-0.6-1.2-1.1-1.9-1.5s-1.5-0.6-2.4-0.6
			c-0.9,0-1.7,0.2-2.5,0.6c-0.7,0.4-1.4,0.9-1.9,1.5s-0.9,1.4-1.2,2.2C203.4,26.6,203.2,27.4,203.2,28.2z"/>
		<path class="st0" d="M219.9,36.3V20.1h6.9c0.7,0,1.3,0.1,1.9,0.4c0.6,0.3,1.1,0.7,1.5,1.2c0.4,0.5,0.8,1,1,1.6s0.4,1.2,0.4,1.9
			c0,0.6-0.1,1.2-0.3,1.7c-0.2,0.5-0.4,1-0.7,1.5c-0.3,0.4-0.7,0.8-1.1,1.1c-0.4,0.3-0.9,0.5-1.5,0.6l4,6.3h-1.8l-3.8-6h-4.8v6
			H219.9z M221.5,28.9h5.3c0.5,0,0.9-0.1,1.3-0.3s0.7-0.5,1-0.8s0.5-0.7,0.6-1.2c0.2-0.4,0.2-0.9,0.2-1.4s-0.1-1-0.3-1.4
			c-0.2-0.4-0.4-0.8-0.7-1.2c-0.3-0.3-0.6-0.6-1.1-0.8c-0.4-0.2-0.8-0.3-1.3-0.3h-5.2V28.9z"/>
		<path class="st0" d="M239.6,20.1h1.3l6.7,16.2H246l-2.1-5.1h-7.3l-2.1,5.1h-1.7L239.6,20.1z M243.5,30l-3.3-8l-3.3,8H243.5z"/>
	</g>
</g>
</svg>
