<?xml version="1.0" encoding="utf-8"?>
<!-- Generator: Adobe Illustrator 22.0.1, SVG Export Plug-In . SVG Version: 6.00 Build 0)  -->
<svg version="1.1" id="Capa_1" xmlns="http://www.w3.org/2000/svg" xmlns:xlink="http://www.w3.org/1999/xlink" x="0px" y="0px"
	 viewBox="0 0 85.5 77.9" style="enable-background:new 0 0 85.5 77.9;" xml:space="preserve">
<style type="text/css">
	.st0{fill:#679D01;}
</style>
<g id="LADO_B">
	<g id="Recycle_1_">
		<g id="Circle_1_1_">
			<path class="st0" d="M17,54.7l7-12.1l4.8,2.9l-8.9-17.4L0.6,28.5l5.5,3.3L0.8,42.5C-4,53.4,13.7,56.7,17,54.7z"/>
			<path class="st0" d="M15.1,56.7C4,57.3,0.6,53.2-0.1,51.8l10.8,21.5c3.1,5.1,9.3,4.4,9.3,4.4h16.8v-21H15.1z"/>
		</g>
		<g id="Circle_2_1_">
			<path class="st0" d="M60.8,3.3l6.3,10.4l5.8-2.9L63,27.4l-19.5-1.7l5-2.5L41,9c-3.3-8.6-9.9-9.3-9.9-9.3s10.6,0,19.1,0
				C55.3-0.3,58.9,1.1,60.8,3.3z"/>
			<path class="st0" d="M40.9,13.1c-6.6-16.4-17-10.5-17-10.5L13.7,18.2l17.6,11L40.9,13.1z"/>
		</g>
		<g id="Mundo_1_">
			<path class="st0" d="M62.4,77.8c12.7,0,23.1-10.4,23.1-23.1S75.1,31.6,62.4,31.6S39.3,42,39.3,54.7S49.6,77.8,62.4,77.8z
				 M80.5,50.6c-1.9-1.1-1.4,0.2-1.4,0.2s0,0,1.3,1.1s2.2,1.6,1.8,3.2c-0.5,1.6-1.3,0.2-2.9,1.5s1.9,1.6,2.1,3.5s-1.9,1-2.9,2.9
				s-0.2,4-0.6,5.8c-0.5,1.8-4.5,4.2-6,5s-0.5-1.8,0-3.5c0.5-1.8-1.1-3.7-1.1-6.9c0-3.2-1-2.2-3.9-2.2s-4.2-1.6-4.5-4.7
				s2.4-6.1,3.7-7.1c1.3-1,3.1-1.9,4.8-1c1.8,1,2.4,1.9,4.3,1.9s1.9-0.6,3.1-1.4c1.1-0.8-1.6-1.8-3.2-1.6s-1.3-1-3.4-1.8
				s-2.9,0.8-3.5,1.1s-2.9,1.3-3.1,0s1.2-1.4,2.6-1.4s0.2-1.1-0.3-1.9c-0.5-0.8-1.4-0.8-2.1-1.4c-0.7-0.6,0.9-1.8,2.5-1.4
				c1.6,0.4,1,1.5,2.7,1.4c1.8-0.2,0-1.8,0-3.3s1.9-1.5,3.2-2.1c1.3-0.6,2.9,2.7,4,4.1c0.4,0.4,0.9,0.2,1.4-0.2
				c2.8,3.3,4.7,7.4,5.3,11.9C82.1,52.9,82.2,51.6,80.5,50.6z M62.4,32.5c0.9,0,1.8,0.1,2.6,0.2c-0.3,0.9-0.8,1.5-0.8,1.5
				s-0.6,2.1-2.1,2.2s-3.2,0-4,1.3s-0.6,3.5-1.9,2.2s-0.2-1.4-1.4-2.7c-1.3-1.3-1.6-1.3-2.2-1.3c-0.2,0-0.4-0.3-0.6-0.8
				C55,33.5,58.6,32.5,62.4,32.5z M49,37c0,0.2,0.2,0.6,1.2,1c1.9,0.8,2.4,2.4,1.5,2.3c-0.9-0.1-4.5,0.4-1.2,1.4s3,2.1,1.6,2.6
				c-1.6,0.5-1.3-1.6-1.6,0.5s-0.6,1.9-1.7,2.3c-1,0.3-3,1.9-3,3.1c0,1.1-0.6,1.8,0.6,2.7c1.3,1-0.4,2.7-1,1.4
				c-0.7-1.5-1.2-2.4-2-2.6s-1.8,1.1,0,2.4c1.8,1.3,1.9,2.1,1.9,3.1s1.3,1,2.4,0.8c1-0.2,3.1,2.6,3.8,3.7c0.7,1.1,2,2.2,3.8,2.7
				s2.4,1.6,1.4,2.4s-1.1,2.7-2.2,3.2s-1.3,1.9-1.9,2.6c-0.4,0.4-0.7,0.9-1,1.4c-1-0.5-1.9-1.1-2.7-1.8c0-0.1-0.1-0.3-0.1-0.4
				c-0.2-1.6-0.3-3.5-1.3-4.3s-1.6-1.9-1.9-3.2c-0.3-1.3,0.5-3.2-0.2-4.5c-0.6-1.3-0.6-0.1-1.9-1.9c-1.3-1.8-1.3-1.8-2.1-3.3
				c-0.4-0.8-0.7-2-0.9-3.3C41.3,45.5,44.5,40.5,49,37z"/>
		</g>
	</g>
</g>
</svg>
